HIERARCHY
ROOT Hips
{
	OFFSET -0.179506 -22.333345 2.821913
	CHANNELS 6 Xposition Yposition Zposition Zrotation Yrotation Xrotation 
	JOINT LeftUpLeg
	{
		OFFSET 6.951974 -9.140623 -0.681533
		CHANNELS 3 Zrotation Yrotation Xrotation
		JOINT LeftLeg
		{
			OFFSET 3.427654 -37.519855 -0.449580
			CHANNELS 3 Zrotation Yrotation Xrotation
			JOINT LeftFoot
			{
				OFFSET -1.359570 -39.796059 -4.369333
				CHANNELS 3 Zrotation Yrotation Xrotation
				JOINT LeftToe
				{
					OFFSET 2.635814 -5.579078 11.928840
					CHANNELS 3 Zrotation Yrotation Xrotation
					End Site
					{
						OFFSET 0.000000 0.000000 0.000000
					}
				}
			}
		}
	}
	JOINT RightUpLeg
	{
		OFFSET -6.767048 -9.052170 -0.431982
		CHANNELS 3 Zrotation Yrotation Xrotation
		JOINT RightLeg
		{
			OFFSET -3.829005 -38.256897 -0.885003
			CHANNELS 3 Zrotation Yrotation Xrotation
			JOINT RightFoot
			{
				OFFSET 1.577377 -39.841461 -4.231180
				CHANNELS 3 Zrotation Yrotation Xrotation
				JOINT RightToe
				{
					OFFSET -2.537174 -4.814398 12.334795
					CHANNELS 3 Zrotation Yrotation Xrotation
					End Site
					{
						OFFSET 0.000000 0.000000 0.000000
					}
				}
			}
		}
	}
	JOINT Spine
	{
		OFFSET -0.253288 10.896323 -2.669631
		CHANNELS 3 Zrotation Yrotation Xrotation
		JOINT Spine1
		{
			OFFSET 0.548704 13.518043 0.109247
			CHANNELS 3 Zrotation Yrotation Xrotation
			JOINT Spine2
			{
				OFFSET 0.145701 5.292222 2.542457
				CHANNELS 3 Zrotation Yrotation Xrotation
				JOINT Neck
				{
					OFFSET -0.277840 21.387037 -4.285703
					CHANNELS 3 Zrotation Yrotation Xrotation
					JOINT Head
					{
						OFFSET 0.515184 6.496960 5.134897
						CHANNELS 3 Zrotation Yrotation Xrotation
						End Site
						{
							OFFSET 0.000000 0.000000 0.000000
						}
					}
				}
				JOINT LeftShoulder
				{
					OFFSET 7.884473 12.174932 -3.408961
					CHANNELS 3 Zrotation Yrotation Xrotation
					JOINT LeftArm
					{
						OFFSET 9.097692 3.046888 -0.886815
						CHANNELS 3 Zrotation Yrotation Xrotation
						JOINT LeftForeArm
						{
							OFFSET 25.961220 -1.277207 -2.745643
							CHANNELS 3 Zrotation Yrotation Xrotation
							JOINT LeftHand
							{
								OFFSET 24.923361 0.898606 -0.117091
								CHANNELS 3 Zrotation Yrotation Xrotation
								End Site
								{
									OFFSET 0.000000 0.000000 0.000000
								}
							}
						}
					}
				}
				JOINT RightShoulder
				{
					OFFSET -8.175920 11.883285 -3.861528
					CHANNELS 3 Zrotation Yrotation Xrotation
					JOINT RightArm
					{
						OFFSET -9.601238 3.255117 -0.914307
						CHANNELS 3 Zrotation Yrotation Xrotation
						JOINT RightForeArm
						{
							OFFSET -25.374195 -1.332924 -2.140099
							CHANNELS 3 Zrotation Yrotation Xrotation
							JOINT RightHand
							{
								OFFSET -25.529810 0.777228 -0.555919
								CHANNELS 3 Zrotation Yrotation Xrotation
								End Site
								{
									OFFSET 0.000000 0.000000 0.000000
								}
							}
						}
					}
				}
			}
		}
	}
}
MOTION
Frames: 13
Frame Time: 0.033333
63.154312 32.507439 19.262552 175.817587 -4.454354 171.278403 -1.730018 2.657712 -5.448969 -14.195806 -2.887109 23.701997 -3.576890 8.763996 -28.523222 nan nan nan -12.144463 -1.674601 -8.916583 7.049769 4.568672 29.912501 7.640545 3.684567 -28.880199 nan nan nan 7.309340 1.444240 8.657217 8.045935 -3.745164 -1.067795 3.852695 0.450568 2.881145 -7.244910 4.465627 -17.155035 -2.185835 -1.538361 -25.314602 -9.624739 -1.433625 -2.865240 -24.969790 2.904099 -0.282632 146.727912 -71.353828 -121.180773 53.286775 -30.620083 -5.437779 20.280370 -1.209763 0.686965 33.607889 -9.085911 6.685005 -169.471689 72.510022 -131.770453 -43.542560 30.976574 20.197031 
63.178291 32.559097 19.010761 175.822265 -4.648612 171.482807 -1.710198 2.440974 -5.286170 -14.260929 -2.951467 23.290950 -3.473445 8.916572 -28.641553 nan nan nan -12.145263 -1.598321 -8.844634 7.057390 4.541674 29.835134 7.504541 3.540590 -28.971645 nan nan nan 7.166843 1.274657 8.478180 8.097805 -3.798516 -1.132848 3.942357 0.441606 2.784344 -7.311098 4.384041 -17.025596 -2.204463 -1.438027 -25.405956 -9.482298 -0.879949 -2.691686 -25.474939 3.060870 -0.525357 148.378659 -71.253978 -123.063336 53.023702 -30.557956 -5.764676 20.175373 -1.578024 0.850632 34.064382 -9.187087 6.628828 -169.516479 72.368915 -131.888796 -43.448579 31.004576 20.231336 
63.139862 32.585381 18.751738 175.788386 -4.746438 171.652282 -1.731403 2.194851 -5.101773 -14.356618 -2.945799 22.927181 -3.395564 9.074386 -28.772014 nan nan nan -12.282251 -1.521840 -8.789542 7.147104 4.554749 29.776608 7.646877 3.593299 -29.037269 nan nan nan 7.070351 1.235183 8.257323 8.194168 -3.855847 -1.145730 3.916494 0.587002 3.044976 -7.268628 4.600855 -17.650751 -2.394725 -1.839896 -24.999665 -9.227272 -0.311393 -2.647203 -26.158547 2.780837 -0.491239 149.302924 -71.246782 -124.182726 53.068982 -30.448887 -6.472999 20.216606 -2.228431 0.700214 34.122463 -9.160569 6.709107 -169.881766 72.161694 -132.139775 -43.640949 30.936360 20.067053 
63.041439 32.667370 18.408335 175.821231 -5.109032 171.818321 -1.864810 1.826007 -4.821635 -14.175119 -2.945970 22.460393 -3.507778 9.012270 -28.776936 nan nan nan -12.460254 -1.511864 -8.364223 7.180311 4.364103 29.275434 7.720542 3.925202 -29.102128 nan nan nan 7.439429 1.129017 7.592374 8.042905 -4.337703 -0.541541 3.693552 0.528239 2.443148 -7.444073 4.627444 -16.684419 -2.139106 -1.762617 -25.479601 -9.282279 -0.248929 -2.179354 -26.670646 3.539879 -0.582378 149.167543 -70.833291 -124.114833 53.122868 -30.679155 -6.865081 20.214184 -2.056247 1.628924 34.499727 -9.512607 6.121863 -170.002932 71.994408 -132.014074 -43.728885 30.933473 20.148493 
63.077736 32.705097 18.171535 175.845739 -5.026793 171.991253 -1.884037 2.066880 -4.711994 -13.927067 -2.932888 22.165965 -3.735488 8.792232 -28.778446 nan nan nan -12.372892 -1.324819 -8.348874 7.021225 4.345482 29.167587 7.784253 4.406828 -29.199357 nan nan nan 7.307928 1.295826 7.426662 8.189100 -4.355166 -0.228959 3.680317 0.570150 2.232871 -7.316231 4.964806 -16.966320 -2.258320 -2.133817 -25.427827 -9.220930 -0.003207 -1.993952 -27.197520 3.523655 -0.566261 148.529433 -70.183032 -123.160457 54.098865 -31.003607 -7.675483 20.440814 -2.494349 1.520606 34.318241 -9.590539 6.052592 -170.579862 71.842970 -132.393995 -44.062232 31.187713 19.642182 
63.029377 32.769772 17.917027 175.943154 -5.301509 172.161333 -1.965301 2.001290 -4.661779 -13.691404 -3.117232 21.995685 -3.756244 8.760403 -28.711531 nan nan nan -12.393758 -1.376473 -7.998973 6.969813 4.302691 28.692008 7.746207 4.504434 -29.141281 nan nan nan 7.500554 1.186482 7.222281 8.159389 -4.467661 -0.241981 3.643651 0.411697 2.242795 -7.300420 4.921028 -17.053310 -2.334989 -2.017737 -25.448457 -9.270712 0.324401 -1.898069 -27.617397 3.729154 -0.696136 149.172520 -69.766778 -123.397324 54.078425 -31.321521 -8.034669 20.376121 -2.782945 1.507694 34.386811 -9.714733 6.015349 -171.149167 71.722463 -132.682340 -44.112429 31.390905 19.368644 
63.026535 32.842693 17.693098 175.978407 -5.393078 172.370079 -1.948362 1.882317 -4.637297 -13.614586 -3.043188 21.780111 -3.709572 8.769696 -28.661849 nan nan nan -12.393062 -1.343117 -7.749093 6.903678 4.373659 28.241894 7.618768 4.382985 -29.209091 nan nan nan 7.658988 1.030307 7.005221 8.013564 -4.516095 -0.193309 3.626727 0.337081 2.044778 -7.367214 4.646928 -16.631022 -2.174096 -1.586379 -25.723066 -9.541752 0.610680 -1.747741 -27.742356 4.207150 -0.785761 150.254738 -69.522506 -124.548953 52.828975 -31.325017 -7.920108 20.316081 -2.862769 1.884225 34.646618 -9.990600 5.974211 -171.298632 71.479660 -132.785319 -43.574733 31.188788 19.917686 
63.037830 32.865753 17.492542 176.086991 -5.373501 172.454730 -1.818134 1.914802 -4.532747 -13.549878 -2.968945 21.624816 -3.735012 8.697839 -28.665715 nan nan nan -12.284403 -1.334542 -7.460279 6.891184 4.575943 27.869718 7.413303 4.430988 -29.253609 nan nan nan 7.756043 0.946185 6.745651 8.037481 -4.630722 -0.007452 3.635732 0.408194 2.245964 -7.481001 4.659154 -16.810997 -2.143355 -1.515371 -25.702247 -9.808093 0.815533 -1.703874 -28.064715 4.338738 -0.830102 150.378257 -69.030010 -124.952589 52.316845 -31.082597 -8.391134 20.103790 -2.936889 2.167812 34.921104 -9.965079 5.830110 -171.359403 71.227911 -132.953513 -43.392578 30.902206 20.060170 
62.986557 32.895737 17.251854 176.148933 -5.665218 172.691411 -1.865051 1.657977 -4.585277 -13.494312 -3.077670 21.496964 -3.839969 8.691546 -28.650806 nan nan nan -12.358728 -1.543446 -7.125734 6.919903 4.667433 27.288667 7.420589 4.459747 -29.151293 nan nan nan 7.871613 0.866739 6.225548 7.977944 -4.895807 0.053607 3.603094 0.471952 2.533285 -7.434905 4.592943 -16.962910 -2.131763 -1.428717 -25.737338 -10.003466 0.921109 -1.572544 -28.309143 4.447873 -1.019670 151.078717 -68.373567 -125.498835 52.133378 -31.364990 -8.281713 20.076319 -3.219001 2.201276 34.918359 -10.041893 5.616031 -172.182127 71.124940 -133.917968 -43.725539 30.888139 19.885591 
63.009499 32.946495 17.100336 176.095781 -5.616904 172.872314 -1.864769 1.541368 -4.577831 -13.655097 -3.130827 21.300864 -3.970143 8.898191 -28.747270 nan nan nan -12.377159 -1.491956 -7.023326 6.866585 4.885247 26.969417 7.706931 4.338130 -29.105800 nan nan nan 7.699121 0.882073 6.350584 7.950839 -4.756553 -0.253217 3.635934 0.702639 2.807087 -7.116032 4.582957 -17.602785 -2.180223 -1.542591 -25.480812 -9.979610 1.152408 -1.612554 -28.539138 4.288817 -0.986106 151.893238 -67.916286 -125.989686 52.753613 -31.158075 -8.049912 20.470119 -3.863966 1.585741 34.509040 -10.322107 5.767852 -173.173140 70.996029 -134.941399 -44.202518 30.966348 19.603303 
63.050430 32.992092 16.953098 176.076895 -5.487212 173.025097 -1.844365 1.579443 -4.504451 -13.675659 -3.161396 21.042735 -3.912686 9.028332 -28.772823 nan nan nan -12.320493 -1.354764 -7.044244 6.861872 5.098478 26.855504 7.716779 4.242766 -29.121169 nan nan nan 7.651174 0.857885 6.356990 7.928909 -4.627514 -0.350734 3.634344 0.698786 2.824728 -7.092362 4.542345 -17.538450 -2.030297 -1.416268 -25.624703 -10.062973 1.434032 -1.563467 -28.926430 4.440828 -0.926359 151.452064 -67.769712 -125.693743 53.757401 -30.384112 -8.893112 20.500659 -4.032834 1.667788 34.663773 -10.483467 5.804742 -173.315222 70.910054 -134.904171 -44.434444 30.909863 19.483894 
63.088692 33.027336 16.801920 176.149954 -5.491627 173.175324 -1.793176 1.660463 -4.495708 -13.477335 -3.050683 20.947082 -3.905572 8.899605 -28.828421 nan nan nan -12.208398 -1.202172 -7.003036 6.837910 5.151029 26.732491 7.702182 4.308777 -29.032584 nan nan nan 7.788712 0.759160 6.303518 7.910431 -4.475356 -0.431094 3.529715 0.526679 2.774368 -7.170289 4.625291 -17.493735 -1.906058 -1.319428 -25.634475 -10.258614 1.796402 -1.411093 -29.241853 4.454142 -1.212732 151.325809 -67.351175 -125.192067 53.555283 -30.647710 -9.137073 20.450368 -4.271090 1.927511 34.877908 -10.452617 5.706022 -173.703578 70.922456 -134.900891 -44.564461 30.934266 19.321109 
63.075729 33.071087 16.645222 176.252523 -5.745192 173.383312 -1.794146 1.474339 -4.634259 -13.261244 -2.947915 21.000239 -3.965857 8.929975 -28.894568 nan nan nan -12.156842 -1.240461 -6.902530 6.800873 5.073559 26.495897 7.689979 4.312948 -28.910458 nan nan nan 8.060689 0.548586 6.048695 7.777999 -4.526205 -0.431095 3.466084 0.319167 2.616972 -7.307109 4.555007 -17.181640 -1.794350 -1.043398 -25.677265 -10.686357 1.973398 -1.238570 -29.126871 4.932630 -1.704699 151.707179 -66.457504 -125.100864 52.717015 -31.970984 -7.741530 20.398532 -4.228240 2.451236 35.033828 -10.582558 5.331986 -174.169860 70.847604 -135.284516 -44.603991 31.186337 19.314360 
